<?xml version="1.0" encoding="UTF-8" standalone="no"?>
<svg width="32px" height="25px" viewBox="0 0 32 25" version="1.1" xmlns="http://www.w3.org/2000/svg" xmlns:xlink="http://www.w3.org/1999/xlink" xmlns:sketch="http://www.bohemiancoding.com/sketch/ns">
    <!-- Generator: Sketch 3.5.2 (25235) - http://www.bohemiancoding.com/sketch -->
    <title>Untitled 4</title>
    <desc>Created with Sketch.</desc>
    <defs></defs>
    <g id="Page-1" stroke="none" stroke-width="1" fill="none" fill-rule="evenodd" sketch:type="MSPage">
        <path d="M7.97886374,4.02932619 L3.55059437,4.02932619 C1.59577275,4.02932619 0,5.52536314 0,7.38044896 L0,20.7051514 C0,22.5602372 1.59577275,24.0562742 3.55059437,24.0562742 L28.3449134,24.0562742 C30.3196822,24.0562742 31.8955078,22.5602372 31.8955078,20.7051514 L31.8955078,7.38044896 C31.8955078,5.52536314 30.3196822,4.02932619 28.3449134,4.02932619 L23.9166441,4.02932619 L23.9166441,3.1915455 C23.9166441,1.41624831 22.4804486,0 20.7250986,0 L11.1704092,0 C9.41505922,0 7.97886374,1.41624831 7.97886374,3.1915455 L7.97886374,4.02932619 Z M8.94760187,13.169793 C8.94760187,16.9923437 11.9965411,20.0867895 15.750832,20.0867895 C19.5278761,20.0867895 22.5768153,16.9923437 22.5768153,13.169793 C22.5768153,9.36999558 19.5278761,6.27554979 15.750832,6.27554979 C11.9965411,6.27554979 8.94760187,9.36999558 8.94760187,13.169793 Z" id="camera-icon" fill="#000000" sketch:type="MSShapeGroup"></path>
    </g>
</svg>