<?xml version="1.0" encoding="utf-8"?>
<!-- Generator: Adobe Illustrator 19.2.1, SVG Export Plug-In . SVG Version: 6.00 Build 0)  -->
<!DOCTYPE svg PUBLIC "-//W3C//DTD SVG 1.1//EN" "http://www.w3.org/Graphics/SVG/1.1/DTD/svg11.dtd">
<svg version="1.1" id="Layer_1" xmlns="http://www.w3.org/2000/svg" xmlns:xlink="http://www.w3.org/1999/xlink" x="0px" y="0px"
	 viewBox="0 0 480 480" style="enable-background:new 0 0 480 480;" xml:space="preserve">
<path d="M283.2,230.3c-14.2,0-25.8-11.6-25.8-25.8s11.6-25.8,25.8-25.8s25.8,11.6,25.8,25.8S297.5,230.3,283.2,230.3z M283.2,180.7
	c-13.1,0-23.8,10.7-23.8,23.8s10.7,23.8,23.8,23.8s23.8-10.7,23.8-23.8S296.4,180.7,283.2,180.7z"/>
<g>
	<path d="M283.2,183.8c-11,0-20,8.6-20.7,19.5h6.7c0.7-7.6,6.3-13.5,13.8-13.5c8.6,0,13.5,6.8,13.5,15.3c0,0.6,0,0.9-0.1,1.4h-17.8
		v0h-5.1c0.6,6.3,5,9.8,10.2,9.8c4,0,6.8-1.6,9.1-4.1l2.7,2.4c-2.9,3.2-6.4,5.4-11.9,5.4c-7.5,0-13.7-5.4-14.4-13.5h-6.7
		c1,10.5,9.9,18.8,20.7,18.8c11.5,0,20.8-9.3,20.8-20.8S294.7,183.8,283.2,183.8z"/>
	<path d="M292.2,203.2c-0.4-5.3-3.5-9.9-9.2-9.9c-5,0-8.8,4.2-9.4,9.9h5.1H292.2z"/>
</g>
</svg>
