<?xml version="1.0" encoding="utf-8"?>
<!-- Generator: Adobe Illustrator 19.2.1, SVG Export Plug-In . SVG Version: 6.00 Build 0)  -->
<!DOCTYPE svg PUBLIC "-//W3C//DTD SVG 1.1//EN" "http://www.w3.org/Graphics/SVG/1.1/DTD/svg11.dtd">
<svg version="1.1" id="Layer_1" xmlns="http://www.w3.org/2000/svg" xmlns:xlink="http://www.w3.org/1999/xlink" x="0px" y="0px"
	 viewBox="0 0 480 480" style="enable-background:new 0 0 480 480;" xml:space="preserve">
<path d="M162.9,165.9c-24.7,0-44.8-11.8-44.8-26.3s20.1-26.3,44.8-26.3s44.8,11.8,44.8,26.3S187.6,165.9,162.9,165.9z M162.9,115.2
	c-23.6,0-42.8,10.9-42.8,24.3s19.2,24.3,42.8,24.3s42.8-10.9,42.8-24.3S186.5,115.2,162.9,115.2z"/>
<g>
	<path d="M149.6,137h27.9c-0.7-8-5.2-14.7-13.8-14.7C156.1,122.3,150.4,129,149.6,137z"/>
	<path d="M143,139.6v-0.2c0-8.8,4.4-16.3,11.1-20c-16.4,2.2-28.6,10.3-28.6,20.1c0,9.8,12.2,17.9,28.7,20.1
		C147.6,156,143,148.8,143,139.6z"/>
	<path d="M174.4,119.8c6.2,3.9,9.6,11.4,9.6,20c0,0.8,0,1.1-0.1,2.1h-34.3c0.9,9,7.5,14.6,15.2,14.6c5.9,0,10.1-2.5,13.7-6.1l4,3.6
		c-1.5,1.7-3.2,3.2-5,4.5c13.4-3.1,22.8-10.5,22.8-19C200.2,130.3,189.4,122.5,174.4,119.8z"/>
</g>
</svg>
