<?xml version="1.0" encoding="UTF-8" standalone="no"?>
<svg width="374px" height="425px" viewBox="0 0 374 425" version="1.1" xmlns="http://www.w3.org/2000/svg" xmlns:xlink="http://www.w3.org/1999/xlink">
    <defs>
        <radialGradient cx="50%" cy="41.7649872%" fx="50%" fy="41.7649872%" r="58.2350128%" id="radialGradient-1">
            <stop stop-color="#FFB81C" offset="0.936702806%"></stop>
            <stop stop-color="#FFFFFF" stop-opacity="0.998216181" offset="62.5143289%"></stop>
            <stop stop-color="#FFFFFF" offset="100%"></stop>
        </radialGradient>
    </defs>
    <g stroke="none" stroke-width="1" fill="none" fill-rule="evenodd">
        <g>
            <rect fill-opacity="0.5" fill="url(#radialGradient-1)" x="0" y="0" width="374" height="485"></rect>
            <g transform="translate(66.000000, 75.000000)">
                <circle fill="#FFFFFF" cx="121.5" cy="121.5" r="121.5"></circle>
                <g transform="translate(22.000000, 21.000000)">
                    <g>
                        <path d="M100.337793,199.898277 C45.4849498,199.898277 0.675585284,154.982773 0.675585284,100 C0.675585284,45.0172272 45.4849498,0.101722724 100.337793,0.101722724 C155.190635,0.101722724 200,45.0172272 200,100 C200,154.982773 155.576923,199.898277 100.337793,199.898277 L100.337793,199.898277 Z M100.337793,7.84577523 C49.7341137,7.84577523 8.40133779,49.2764561 8.40133779,100 C8.40133779,150.723544 49.7341137,192.154225 100.337793,192.154225 C150.941472,192.154225 192.274247,150.723544 192.274247,100 C192.274247,49.2764561 151.327759,7.84577523 100.337793,7.84577523 L100.337793,7.84577523 Z" fill="#FFB81C"></path>
                        <g transform="translate(20.183946, 19.360131)" fill="#002B49">
                            <path d="M80.1538462,0.488925349 C37.6622074,0.488925349 2.89632107,33.7883511 0.192307692,75.9934372 L26.0735786,75.9934372 C28.777592,46.5660377 50.409699,23.7210829 79.3812709,23.7210829 C112.602007,23.7210829 131.5301,50.0508614 131.5301,82.9630845 C131.5301,85.2863002 131.5301,86.4479081 131.143813,88.3839212 L62.3846154,88.3839212 L62.3846154,88.3839212 L42.6839465,88.3839212 C45.0016722,112.777687 61.9983278,126.329779 82.0852843,126.329779 C97.5367893,126.329779 108.352843,120.134537 117.237458,110.454471 L127.667224,119.747334 C116.464883,132.137818 102.944816,140.656276 81.6989967,140.656276 C52.7274247,140.656276 28.777592,119.747334 26.0735786,88.3839212 L0.192307692,88.3839212 C4.05518395,129.040197 38.4347826,161.178015 80.1538462,161.178015 C124.576923,161.178015 160.501672,125.168171 160.501672,80.6398687 C160.501672,36.1115669 124.576923,0.488925349 80.1538462,0.488925349 L80.1538462,0.488925349 Z"></path>
                            <path d="M114.919732,75.6062346 C113.374582,55.0844955 101.399666,37.2731747 79.3812709,37.2731747 C60.0668896,37.2731747 45.3879599,53.535685 43.0702341,75.6062346 L62.770903,75.6062346 L114.919732,75.6062346 L114.919732,75.6062346 Z"></path>
                        </g>
                    </g>
                </g>
            </g>
        </g>
    </g>
</svg>