<svg width="91" height="55" xmlns="http://www.w3.org/2000/svg">

 <g>
  <title>background</title>
  <rect fill="none" id="canvas_background" height="57" width="93" y="-1" x="-1"/>
 </g>
 <g>
  <title>Layer 1</title>
  <path fill="#ffb81c" id="svg_1" d="m45.9,53.9c-24.7,0 -44.8,-11.8 -44.8,-26.3s20.1,-26.3 44.8,-26.3s44.8,11.8 44.8,26.3s-20.1,26.3 -44.8,26.3zm0,-50.7c-23.6,0 -42.8,10.9 -42.8,24.3s19.2,24.3 42.8,24.3s42.8,-10.9 42.8,-24.3s-19.2,-24.3 -42.8,-24.3z"/>
  <g id="svg_2">
   <path fill="#002b49" id="svg_3" d="m32.599998,25.1l27.9,0c-0.7,-8 -5.2,-14.7 -13.8,-14.7c-7.6,0 -13.3,6.7 -14.1,14.7z"/>
   <path fill="#002b49" id="svg_4" d="m25.999998,27.7l0,-0.2c0,-8.8 4.4,-16.3 11.1,-20c-16.4,2.2 -28.6,10.3 -28.6,20.1c0,9.8 12.2,17.9 28.7,20.1c-6.6,-3.6 -11.2,-10.8 -11.2,-20z"/>
   <path fill="#002b49" id="svg_5" d="m57.399998,7.9c6.2,3.9 9.6,11.4 9.6,20c0,0.8 0,1.1 -0.1,2.1l-34.3,0c0.9,9 7.5,14.6 15.2,14.6c5.9,0 10.1,-2.5 13.7,-6.1l4,3.6c-1.5,1.7 -3.2,3.2 -5,4.5c13.4,-3.1 22.8,-10.5 22.8,-19c-0.1,-9.2 -10.9,-17 -25.9,-19.7z"/>
  </g>
 </g>
</svg>