<?xml version="1.0" encoding="UTF-8" standalone="no"?>
<svg width="25px" height="25px" viewBox="0 0 25 25" version="1.1" xmlns="http://www.w3.org/2000/svg" xmlns:xlink="http://www.w3.org/1999/xlink">
    <defs></defs>
    <g stroke="none" stroke-width="1" fill="none" fill-rule="evenodd">
        <path d="M20.2146722,0.599238289 L19,2.23499686 L22.6100058,4.7291238 L23.7922868,3.10956085 C24.26196,2.46173568 24.1145798,1.57097606 23.4683742,1.1013028 L23.4683742,1.1013028 L22.2698976,0.275325701 C22.0107675,0.0971737766 21.7030506,0 21.4115292,0 L21.4115292,0 C20.9596712,0 20.5061935,0.210543183 20.2146722,0.599238289 L20.2146722,0.599238289 Z M1.74912798,3 C0.777390213,3 0,3.79358584 0,4.76532361 L0,4.76532361 L0,22.3861684 C0,23.3579062 0.777390213,24.1514921 1.74912798,24.1514921 L1.74912798,24.1514921 L19.3375816,24.1514921 C20.3093193,24.1514921 21.1029052,23.3579062 21.1029052,22.3861684 L21.1029052,22.3861684 L21.1029052,10.9196628 L19.4493314,13.1870509 L19.4493314,22.4833422 L1.66814983,22.4833422 L1.66814983,4.68434546 L13.6205244,4.68434546 L14.8513922,3 L1.74912798,3 L1.74912798,3 Z M12.0244537,11.567488 L10,14.3045494 L12.1362035,15.7945473 L12.3953336,15.9726992 L13.5614189,16.7986763 L14.3712004,15.7297647 C14.3890156,15.6973735 14.4197873,15.6811779 14.4537981,15.6487866 L14.4537981,15.6487866 L21.9361789,5.49412693 L18.3391296,3 L12.0244537,11.567488 L12.0244537,11.567488 Z M8,20.7777107 L12.4052112,18.4941269 L8.85836836,16 L8,20.7777107 L8,20.7777107 Z" fill="#000000"></path>
    </g>
</svg>