<?xml version="1.0" encoding="UTF-8" standalone="no"?>
<svg width="29px" height="25px" viewBox="0 0 29 25" version="1.1" xmlns="http://www.w3.org/2000/svg" xmlns:xlink="http://www.w3.org/1999/xlink">
    <defs></defs>
    <g stroke="none" stroke-width="1" fill="none" fill-rule="evenodd">
        <g fill="#FFFFFF">
            <path d="M27.1875,8.92857143 L26.28125,8.92857143 L24.46875,1.78571429 C24.46875,0.798214286 23.65675,0 22.65625,0 L6.34375,0 C5.34325,0 4.53125,0.798214286 4.53125,1.78571429 L2.71875,8.92857143 L1.8125,8.92857143 C0.812,8.92857143 0,9.72678571 0,10.7142857 L0,19.6428571 C0,20.6303571 0.812,21.4285714 1.8125,21.4285714 L3.625,21.4285714 L3.625,24.1071429 C3.625,24.6 4.031,25 4.53125,25 L8.15625,25 C8.6565,25 9.0625,24.6 9.0625,24.1071429 L9.0625,21.4285714 L19.9375,21.4285714 L19.9375,24.1071429 C19.9375,24.6 20.3435,25 20.84375,25 L24.46875,25 C24.969,25 25.375,24.6 25.375,24.1071429 L25.375,21.4285714 L27.1875,21.4285714 C28.188,21.4285714 29,20.6303571 29,19.6428571 L29,10.7142857 C29,9.72678571 28.188,8.92857143 27.1875,8.92857143 L27.1875,8.92857143 L27.1875,8.92857143 Z M27,19.1 C27,19.5968 26.6,20 26.1071429,20 L2.89285714,20 C2.4,20 2,19.5968 2,19.1 L2,11.9 C2,11.405 2.4,11 2.89285714,11 C4.67857143,11 4.67857143,9.2 4.67857143,9.2 L4.67857143,8.3 L6.46428571,2.9 C6.46428571,2.405 6.86428571,2 7.35714286,2 L21.6428571,2 C22.1357143,2 22.5357143,2.405 22.5357143,2.9 L24.3214286,8.3 L24.3214286,9.2 C24.3214286,9.2 24.3214286,11 26.1071429,11 C26.6,11 27,11.405 27,11.9 L27,19.1 L27,19.1 L27,19.1 Z M6.5,13 C5.11833333,13 4,14.12 4,15.5 C4,16.88 5.11833333,18 6.5,18 C7.88166667,18 9,16.88 9,15.5 C9,14.12 7.88166667,13 6.5,13 L6.5,13 L6.5,13 Z M22.5,13 C21.1183333,13 20,14.12 20,15.5 C20,16.88 21.1183333,18 22.5,18 C23.8816667,18 25,16.88 25,15.5 C25,14.12 23.8816667,13 22.5,13 L22.5,13 L22.5,13 Z M17.125,13 L11.875,13 C11.392,13 11,13.45 11,14 C11,14.552 11.392,15 11.875,15 L17.125,15 C17.608,15 18,14.552 18,14 C18,13.45 17.608,13 17.125,13 L17.125,13 L17.125,13 Z M17.125,16 L11.875,16 C11.392,16 11,16.45 11,17 C11,17.552 11.392,18 11.875,18 L17.125,18 C17.608,18 18,17.552 18,17 C18,16.45 17.608,16 17.125,16 L17.125,16 L17.125,16 Z"></path>
        </g>
    </g>
</svg>